# xmcd
#
# Track frame offsets: 
#        150
#        15655
#        31117
#
# Disc length: 611 seconds
#
# Revision: 2
# Processed by: cddbd v1.5.2PL0 Copyright (c) Steve Scherf et al.
# Submitted via: ExactAudioCopy v1.3
#
DISCID=15026103
DTITLE=Britney Spears - I'm A Slave 4 U - Single 
DYEAR=2001
DGENRE=Pop
TTITLE0=I'm A Slave 4 U (Main Version)
TTITLE1=I'm A Slave 4 U - Single  (Instrumental)
TTITLE2=Imtimidated
EXTD=
EXTT0=
EXTT1=
EXTT2=
PLAYORDER=
